<?xml version="1.0" encoding="UTF-8"?>
<svg version="1.1" xmlns="http://www.w3.org/2000/svg" width="300" height="300">
<path d="M0 0 C99 0 198 0 300 0 C300 99 300 198 300 300 C201 300 102 300 0 300 C0 201 0 102 0 0 Z " fill="#FEFEFE" transform="translate(0,0)"/>
<path d="M0 0 C0.99 0.63421875 1.98 1.2684375 3 1.921875 C6.4152803 4.08153754 9.89006121 5.94382488 13.5 7.75 C14.60988281 8.31332031 15.71976562 8.87664062 16.86328125 9.45703125 C28.69645283 14.72703363 40.13837725 14.10195331 52.18359375 9.78125 C57.71608518 7.4190938 62.7638677 4.05155469 67.67089844 0.59643555 C74.14195392 -3.7435628 79.44449672 -3.81347552 87 -2.6171875 C99.94917784 1.40630704 108.85648268 8.53846453 115.38793945 20.41845703 C123.04320181 35.14490962 125.3643274 50.98035035 125.375 67.4375 C125.38724609 68.43136719 125.39949219 69.42523438 125.41210938 70.44921875 C125.43408434 81.53925239 123.20201933 90.96624423 115.4375 99.1875 C111.68746249 102.73614661 107.97045934 105.05254901 103.1875 106.9375 C102.06688171 107.44212769 100.94626343 107.94675537 99.79168701 108.4666748 C94.3442309 110.49106585 89.02272736 110.37284252 83.27050781 110.35742188 C82.0986795 110.36589142 80.9268512 110.37436096 79.71951294 110.38308716 C75.85977207 110.40641525 72.00043094 110.40748011 68.140625 110.40625 C66.12735033 110.41070795 64.11408537 110.41687228 62.10081553 110.42311716 C55.77355364 110.44230854 49.44642364 110.44525139 43.11914062 110.43847656 C36.62063843 110.43184553 30.12270524 110.45467143 23.62431836 110.49179029 C18.02058592 110.52262178 12.4170352 110.53383268 6.81321979 110.52995348 C3.47708918 110.52789895 0.14175185 110.53544006 -3.19435883 110.55784607 C-6.92266657 110.58012792 -10.6496242 110.57028421 -14.37792969 110.55273438 C-16.00554733 110.57262924 -16.00554733 110.57262924 -17.66604614 110.59292603 C-28.31335246 110.47722268 -37.64413349 106.77519063 -45.84375 99.95703125 C-49.29914185 96.41251223 -51.64114774 92.35916279 -53.8125 87.9375 C-54.35261719 86.89851563 -54.89273438 85.85953125 -55.44921875 84.7890625 C-57.41848704 80.07552356 -57.30309145 75.35448886 -57.25 70.3125 C-57.24315186 69.30775635 -57.23630371 68.3030127 -57.22924805 67.26782227 C-56.78438351 46.00596319 -51.7885154 23.54363761 -37 7.5625 C-32.78107908 3.56476523 -28.13809323 1.17081329 -22.8125 -1.0625 C-21.843125 -1.495625 -20.87375 -1.92875 -19.875 -2.375 C-12.34775682 -4.06478929 -6.75368701 -4.02155462 0 0 Z " fill="#FDFDFD" transform="translate(115.8125,149.0625)"/>
<path d="M0 0 C10.49576372 8.17598905 19.1002166 18.75451848 22 32 C23.51154544 48.0736505 22.10646333 62.40511652 12.125 75.5625 C10.7842302 77.07276334 9.41049697 78.55464284 8 80 C7.38382812 80.64324219 6.76765625 81.28648437 6.1328125 81.94921875 C-3.54692757 91.2072274 -16.68979166 96.02599341 -29.9375 96.375 C-46.11241207 95.95120318 -58.89303278 89.67655528 -70 78 C-81.21531524 65.07943216 -83.31407476 50.93081003 -82.23925781 34.40625 C-81.74336484 29.41898353 -80.42912445 25.35665979 -78 21 C-77.49082031 20.071875 -76.98164062 19.14375 -76.45703125 18.1875 C-69.09990991 5.79655879 -58.26906962 -3.9192186 -44.1875 -8 C-28.81345943 -11.10320344 -13.04626046 -9.14871932 0 0 Z " fill="#FDFDFD" transform="translate(179,50)"/>
<path d="M0 0 C0.99 0.63421875 1.98 1.2684375 3 1.921875 C6.4152803 4.08153754 9.89006121 5.94382488 13.5 7.75 C14.60988281 8.31332031 15.71976562 8.87664062 16.86328125 9.45703125 C28.69645283 14.72703363 40.13837725 14.10195331 52.18359375 9.78125 C57.71608518 7.4190938 62.7638677 4.05155469 67.67089844 0.59643555 C74.14195392 -3.7435628 79.44449672 -3.81347552 87 -2.6171875 C99.94917784 1.40630704 108.85648268 8.53846453 115.38793945 20.41845703 C123.04320181 35.14490962 125.3643274 50.98035035 125.375 67.4375 C125.38724609 68.43136719 125.39949219 69.42523438 125.41210938 70.44921875 C125.43408434 81.53925239 123.20201933 90.96624423 115.4375 99.1875 C111.68746249 102.73614661 107.97045934 105.05254901 103.1875 106.9375 C102.06688171 107.44212769 100.94626343 107.94675537 99.79168701 108.4666748 C94.3442309 110.49106585 89.02272736 110.37284252 83.27050781 110.35742188 C82.0986795 110.36589142 80.9268512 110.37436096 79.71951294 110.38308716 C75.85977207 110.40641525 72.00043094 110.40748011 68.140625 110.40625 C66.12735033 110.41070795 64.11408537 110.41687228 62.10081553 110.42311716 C55.77355364 110.44230854 49.44642364 110.44525139 43.11914062 110.43847656 C36.62063843 110.43184553 30.12270524 110.45467143 23.62431836 110.49179029 C18.02058592 110.52262178 12.4170352 110.53383268 6.81321979 110.52995348 C3.47708918 110.52789895 0.14175185 110.53544006 -3.19435883 110.55784607 C-6.92266657 110.58012792 -10.6496242 110.57028421 -14.37792969 110.55273438 C-16.00554733 110.57262924 -16.00554733 110.57262924 -17.66604614 110.59292603 C-28.31335246 110.47722268 -37.64413349 106.77519063 -45.84375 99.95703125 C-49.29914185 96.41251223 -51.64114774 92.35916279 -53.8125 87.9375 C-54.35261719 86.89851563 -54.89273438 85.85953125 -55.44921875 84.7890625 C-57.41848704 80.07552356 -57.30309145 75.35448886 -57.25 70.3125 C-57.24315186 69.30775635 -57.23630371 68.3030127 -57.22924805 67.26782227 C-56.78438351 46.00596319 -51.7885154 23.54363761 -37 7.5625 C-32.78107908 3.56476523 -28.13809323 1.17081329 -22.8125 -1.0625 C-21.843125 -1.495625 -20.87375 -1.92875 -19.875 -2.375 C-12.34775682 -4.06478929 -6.75368701 -4.02155462 0 0 Z M-30.125 19.0625 C-34.13300279 23.97371468 -36.69172458 28.98272489 -38.8125 34.9375 C-39.20566406 36.00613281 -39.59882812 37.07476562 -40.00390625 38.17578125 C-42.83295398 47.35293607 -43.22802679 56.29537802 -43.3125 65.875 C-43.34017456 67.74164307 -43.34017456 67.74164307 -43.3684082 69.64599609 C-43.31265677 77.85636066 -42.57693611 84.7996684 -36.8828125 91.05859375 C-36.24085937 91.49300781 -35.59890625 91.92742187 -34.9375 92.375 C-34.30070312 92.82746094 -33.66390625 93.27992188 -33.0078125 93.74609375 C-26.5755396 97.23691801 -20.60346069 97.2341022 -13.45800781 97.22802734 C-12.32227325 97.23474457 -11.1865387 97.24146179 -10.01638794 97.24838257 C-6.26608897 97.26736197 -2.515969 97.27128692 1.234375 97.2734375 C3.8474332 97.27986596 6.46049067 97.28659435 9.07354736 97.29360962 C14.55099651 97.3063846 20.02839734 97.30937625 25.50585938 97.30810547 C31.81682239 97.30690553 38.12744262 97.32798291 44.43831897 97.3595928 C50.53053855 97.38900892 56.62259504 97.39607849 62.7148819 97.39488602 C65.29675953 97.39724049 67.8786399 97.40605529 70.46047211 97.42155075 C74.07907714 97.44123334 77.69680941 97.43536247 81.31542969 97.42333984 C82.37343781 97.43457886 83.43144592 97.44581787 84.52151489 97.45739746 C92.33677923 97.39170044 99.45176815 96.00271588 105.625 90.9375 C106.3984375 89.9475 106.3984375 89.9475 107.1875 88.9375 C107.72375 88.2775 108.26 87.6175 108.8125 86.9375 C111.61682439 82.85848271 112.44221456 80.0626004 112.453125 75.0625 C112.45570313 73.91136719 112.45828125 72.76023438 112.4609375 71.57421875 C112.45320312 70.37410156 112.44546875 69.17398438 112.4375 67.9375 C112.44523438 66.76832031 112.45296875 65.59914062 112.4609375 64.39453125 C112.42421307 47.85017533 109.56198699 30.69568747 98.1875 17.9375 C92.44676869 12.68883137 87.23443784 9.58673091 79.27880859 9.66064453 C75.78331789 10.12339102 73.53937262 11.99351615 70.75 14.0625 C55.74571094 24.33147931 40.26314875 27.15843135 22.1875 24.9375 C12.033773 22.95372254 3.69864283 17.74787931 -4.53125 11.6953125 C-13.96165736 6.64330856 -23.37035044 11.9771143 -30.125 19.0625 Z " fill="#050505" transform="translate(115.8125,149.0625)"/>
<path d="M0 0 C10.49576372 8.17598905 19.1002166 18.75451848 22 32 C23.51154544 48.0736505 22.10646333 62.40511652 12.125 75.5625 C10.7842302 77.07276334 9.41049697 78.55464284 8 80 C7.38382812 80.64324219 6.76765625 81.28648437 6.1328125 81.94921875 C-3.54692757 91.2072274 -16.68979166 96.02599341 -29.9375 96.375 C-46.11241207 95.95120318 -58.89303278 89.67655528 -70 78 C-81.21531524 65.07943216 -83.31407476 50.93081003 -82.23925781 34.40625 C-81.74336484 29.41898353 -80.42912445 25.35665979 -78 21 C-77.49082031 20.071875 -76.98164062 19.14375 -76.45703125 18.1875 C-69.09990991 5.79655879 -58.26906962 -3.9192186 -44.1875 -8 C-28.81345943 -11.10320344 -13.04626046 -9.14871932 0 0 Z M-61 18 C-69.17177925 28.13843152 -70.17386824 38.88118404 -69.33300781 51.51757812 C-68.2040862 59.93317557 -63.24233655 67.94783685 -56.953125 73.54296875 C-45.93472223 81.76269722 -36.47445901 83.82064485 -23 83 C-12.58472052 81.46423493 -4.05640772 75.11230914 2.53515625 67.109375 C4.95341197 63.62708676 6.51811944 59.95416371 8 56 C8.4125 55.071875 8.825 54.14375 9.25 53.1875 C11.70981411 42.73329005 9.98546364 31.64916592 4.45703125 22.42578125 C2.75499814 20.13173662 0.97436664 18.06319295 -1 16 C-1.93005859 15.02740234 -1.93005859 15.02740234 -2.87890625 14.03515625 C-11.34848498 5.94200324 -21.61033241 3.65160627 -33.05737305 3.61938477 C-44.76350509 3.90082977 -53.27682801 9.56222847 -61 18 Z " fill="#050505" transform="translate(179,50)"/>
</svg>
