<?xml version="1.0" encoding="UTF-8"?>
<svg version="1.1" xmlns="http://www.w3.org/2000/svg" width="400" height="400">
<path d="M0 0 C132 0 264 0 400 0 C400 132 400 264 400 400 C268 400 136 400 0 400 C0 268 0 136 0 0 Z " fill="#FEFEFE" transform="translate(0,0)"/>
<path d="M0 0 C4.10465132 0.27364342 5.47070821 0.88106375 8.75 3.25 C10.96875 5.82421875 10.96875 5.82421875 13.25 8.9375 C14.12414299 10.11098643 15.0005558 11.28278452 15.87890625 12.453125 C16.57330811 13.3802832 16.57330811 13.3802832 17.28173828 14.32617188 C19.83878744 17.67661207 22.51598517 20.92814151 25.1875 24.1875 C29.25998048 29.16939816 33.29078304 34.17759299 37.25 39.25 C41.72900024 44.98649326 46.303449 50.63982313 50.90527344 56.27807617 C54.95092629 61.24368786 58.92271948 66.26241929 62.86499023 71.31030273 C65.63479996 74.85048955 68.45142999 78.3451437 71.3125 81.8125 C74.69723015 85.92558981 77.99706706 90.09504477 81.25 94.3125 C81.6838501 94.87332275 82.1177002 95.43414551 82.56469727 96.01196289 C85.9137061 100.37716706 87.29932768 102.64685771 86.75 108.25 C84.95006226 110.94990662 83.666227 112.7918865 80.75 114.25 C79.39154807 114.33902493 78.02884026 114.36760132 76.66748047 114.36352539 C75.40639969 114.36341209 75.40639969 114.36341209 74.11984253 114.36329651 C72.75727829 114.35555458 72.75727829 114.35555458 71.3671875 114.34765625 C70.43778351 114.3462413 69.50837952 114.34482635 68.55081177 114.34336853 C65.57550876 114.33776053 62.60028036 114.32520668 59.625 114.3125 C57.61067817 114.30748603 55.59635516 114.30292295 53.58203125 114.29882812 C48.63799198 114.2877885 43.69400865 114.27051849 38.75 114.25 C38.76110306 115.035457 38.77220612 115.820914 38.78364563 116.63017273 C38.88445976 124.08715339 38.96027178 131.54379665 39.00906086 139.0012846 C39.03498857 142.83391943 39.07007086 146.66598417 39.12719727 150.49829102 C39.1821283 154.20717152 39.2115465 157.91550902 39.22438622 161.6247654 C39.23351814 163.02918848 39.25134577 164.43358694 39.27865028 165.83777428 C39.49477676 177.42948658 37.82129079 189.04434521 29.4375 197.75 C20.9749652 206.36614516 11.97023792 210.25713238 -0.125 210.75 C-10.06119932 210.50159502 -18.34580637 207.01954532 -25.5078125 200.125 C-35.53034566 189.33841723 -37.85977999 179.31608734 -37.640625 164.8359375 C-37.63314822 163.37050149 -37.6274621 161.90505537 -37.62347412 160.43960571 C-37.60833044 156.61553479 -37.56914927 152.79208874 -37.5246582 148.96826172 C-37.48345934 145.05314584 -37.46541102 141.13792724 -37.4453125 137.22265625 C-37.40264119 129.56482182 -37.33453065 121.90749905 -37.25 114.25 C-39.16462036 114.29713135 -39.16462036 114.29713135 -41.11791992 114.34521484 C-45.86066372 114.45394318 -50.60329778 114.52274364 -55.34692383 114.57958984 C-57.39854466 114.60973452 -59.4500369 114.65065836 -61.5012207 114.70263672 C-64.45295941 114.77555446 -67.40299274 114.80947901 -70.35546875 114.8359375 C-71.27023483 114.86690521 -72.18500092 114.89787292 -73.12748718 114.92977905 C-79.34075069 114.93305124 -79.34075069 114.93305124 -81.94961548 112.97320557 C-84.02161979 110.58761774 -85.18751421 108.5056237 -85.9375 105.4375 C-84.22192427 97.48346707 -77.80107562 91.40965138 -72.62719727 85.39355469 C-69.26982307 81.48626091 -66.03786395 77.50354565 -62.875 73.4375 C-58.89444406 68.32352673 -54.84891701 63.26963579 -50.75 58.25 C-46.70008576 53.2877555 -42.69194641 48.29845768 -38.75 43.25 C-34.27414233 37.51776123 -29.70532466 31.8665917 -25.10351562 26.23510742 C-20.97104475 21.1676465 -16.91857015 16.04237911 -12.93945312 10.85351562 C-10.25914562 7.39545898 -7.3995183 4.28469212 -4.25 1.25 C-3.25 0.25 -3.25 0.25 0 0 Z " fill="#253542" transform="translate(199.25,94.75)"/>
<path d="M0 0 C2.875 1.3125 2.875 1.3125 5 3 C5.33 3.99 5.66 4.98 6 6 C5.34 6 4.68 6 4 6 C3.67 5.34 3.34 4.68 3 4 C0.69 4.66 -1.62 5.32 -4 6 C-4.66 5.01 -5.32 4.02 -6 3 C-6.99 3.33 -7.98 3.66 -9 4 C-10.17082878 6.92914165 -10.17082878 6.92914165 -11 10 C-11.33 10.66 -11.66 11.32 -12 12 C-13.32 11.34 -14.64 10.68 -16 10 C-15.06862408 8.70391053 -14.1296434 7.41328368 -13.1875 6.125 C-12.66542969 5.40570313 -12.14335937 4.68640625 -11.60546875 3.9453125 C-8.11402985 -0.28519011 -5.24479576 -0.45213757 0 0 Z " fill="#3D4951" transform="translate(203,95)"/>
<path d="M0 0 C0.99 1.32 1.98 2.64 3 4 C2.67 4.99 2.34 5.98 2 7 C0.67203709 7.35412344 -0.66216607 7.68521554 -2 8 C-3.73026102 9.47890069 -3.73026102 9.47890069 -5 11 C-5.66 10.34 -6.32 9.68 -7 9 C-4.69 6.03 -2.38 3.06 0 0 Z " fill="#34414A" transform="translate(162,136)"/>
<path d="M0 0 C0.66 0 1.32 0 2 0 C3.39935013 2.79870027 3.25265405 4.90498792 3 8 C1.5 9.875 1.5 9.875 0 11 C0 9.68 0 8.36 0 7 C-0.66 7 -1.32 7 -2 7 C-1.125 2.25 -1.125 2.25 0 0 Z " fill="#36424C" transform="translate(283,195)"/>
<path d="M0 0 C0.33 0 0.66 0 1 0 C1.32316568 3.55482252 1.45553291 5.37575119 -0.6875 8.3125 C-3.19598492 10.14301602 -4.94082833 10.66009204 -8 11 C-5.50505292 7.16847413 -2.97337987 3.48603157 0 0 Z " fill="#3A444C" transform="translate(186,106)"/>
<path d="M0 0 C0.33 0 0.66 0 1 0 C1.16682272 4.92127034 1.24828052 8.50343896 -1 13 C-3 11 -3 11 -3.3125 8.1875 C-2.96725236 4.66597409 -2.07909887 2.82757446 0 0 Z " fill="#3C4B51" transform="translate(117,192)"/>
<path d="M0 0 C2.5 2.3125 2.5 2.3125 5 5 C5 5.99 5 6.98 5 8 C3.02 8.99 3.02 8.99 1 10 C0.67 6.7 0.34 3.4 0 0 Z " fill="#3B4850" transform="translate(274,182)"/>
<path d="M0 0 C1 2 1 2 0.0625 5 C-0.288125 5.99 -0.63875 6.98 -1 8 C-1 8.66 -1 9.32 -1 10 C-2.32 9.67 -3.64 9.34 -5 9 C-5.33 9.66 -5.66 10.32 -6 11 C-6.33 10.34 -6.66 9.68 -7 9 C-4.69 6.03 -2.38 3.06 0 0 Z " fill="#3C464F" transform="translate(170,126)"/>
<path d="M0 0 C3.25543229 0.34879632 4.01873107 1.02133261 6.25 3.5625 C6.8275 4.366875 7.405 5.17125 8 6 C7.67 6.66 7.34 7.32 7 8 C3.83282717 6.41641358 2.26731682 5.54736301 0.6875 2.3125 C0.460625 1.549375 0.23375 0.78625 0 0 Z " fill="#3E484F" transform="translate(240,142)"/>
<path d="M0 0 C1.65 1.65 3.3 3.3 5 5 C4.67 5.99 4.34 6.98 4 8 C2.35 7.67 0.7 7.34 -1 7 C-0.67 4.69 -0.34 2.38 0 0 Z " fill="#3A454F" transform="translate(234,132)"/>
<path d="M0 0 C2 3 2 3 3 6 C1.1875 6.625 1.1875 6.625 -1 7 C-1.99 6.34 -2.98 5.68 -4 5 C-2.68 3.35 -1.36 1.7 0 0 Z " fill="#36444E" transform="translate(125,182)"/>
<path d="M0 0 C1.32 0.33 2.64 0.66 4 1 C3.34 2.32 2.68 3.64 2 5 C0.68 4.34 -0.64 3.68 -2 3 C-1.34 2.01 -0.68 1.02 0 0 Z " fill="#36424C" transform="translate(189,102)"/>
</svg>
